<svg width="180" height="40" viewBox="0 0 180 40" fill="none" xmlns="http://www.w3.org/2000/svg">
<path d="M3.37222 5.6V34H9.13222V16.04L15.7322 28.08H19.9722L26.5722 16.04V34H32.3322V5.6H26.9322L17.9322 22L8.97222 5.6H3.37222ZM38.3128 5.6V34H48.8328C53.9928 34 59.1928 31.68 59.1928 25.92C59.1928 22.72 57.6328 20.12 54.6328 18.96C56.9128 17.72 57.9928 15.52 57.9928 12.96C57.9928 7.52 53.2728 5.6 48.6328 5.6H38.3128ZM44.0728 29.08V21.64H48.5528C51.0328 21.64 53.2328 22.56 53.2328 25.36C53.2328 28.16 51.0328 29.08 48.5528 29.08H44.0728ZM44.0728 17.04V10.52H47.9928C50.1928 10.52 52.0728 11.32 52.0728 13.8C52.0728 16.24 50.1528 17.04 47.9928 17.04H44.0728ZM61.7857 10.88H69.7857V34H75.7457V10.88H83.7457V5.6H61.7857V10.88ZM83.7528 23.44C83.7528 29.8 88.4328 34.6 94.7128 34.6C101.193 34.6 105.833 29.72 105.833 23.4C105.833 17 101.153 12.28 94.8728 12.28C88.4728 12.28 83.7528 17.16 83.7528 23.44ZM94.7928 17.32C98.1928 17.32 100.113 20.32 100.113 23.44C100.113 26.6 98.1128 29.56 94.7928 29.56C91.4328 29.56 89.4728 26.52 89.4728 23.44C89.4728 20.28 91.4728 17.32 94.7928 17.32ZM110.314 4.16V34H115.794V23.48L124.074 34H131.154L121.394 22.24L130.194 12.88H123.634L115.794 21.48V4.16H110.314ZM132.423 23.4C132.423 29.8 136.863 34.6 143.223 34.6C147.183 34.6 151.303 32.64 152.823 28.84L147.823 27.24C146.783 28.92 145.263 29.88 143.263 29.88C140.223 29.88 138.543 27.64 138.103 24.84H153.263V23.44C153.263 17.04 149.383 12.28 142.943 12.28C136.623 12.28 132.423 17.4 132.423 23.4ZM142.943 16.6C145.623 16.6 147.143 18.6 147.503 21.08H138.183C138.663 18.6 140.263 16.6 142.943 16.6ZM157.539 12.88V34H163.139V21.88C163.139 19.28 164.859 17.32 167.459 17.32C170.219 17.32 171.219 19.6 171.219 22.04V34H176.819V21.32C176.819 16.4 174.299 12.28 169.099 12.28C166.539 12.28 164.179 13.36 162.859 15.6L162.699 12.88H157.539Z" fill="#F7F7F7"/>
</svg>
